<svg xmlns="http://www.w3.org/2000/svg" version="1.1" width="512px" height="512px" style="shape-rendering:geometricPrecision; text-rendering:geometricPrecision; image-rendering:optimizeQuality; fill-rule:evenodd; clip-rule:evenodd" xmlns:xlink="http://www.w3.org/1999/xlink">
<g><path style="opacity:0.969" fill="#253237" d="M 511.5,169.5 C 511.5,169.833 511.5,170.167 511.5,170.5C 386.745,221.375 262.078,272.542 137.5,324C 117.924,332.748 97.5905,339.081 76.5,343C 54.0429,345.884 33.3763,341.217 14.5,329C 7.03287,322.212 2.03287,314.045 -0.5,304.5C -0.5,297.167 -0.5,289.833 -0.5,282.5C 4.52505,260.618 13.3584,240.285 26,221.5C 39.1285,201.2 54.9619,183.2 73.5,167.5C 70.7919,173.935 67.6253,180.602 64,187.5C 56.3447,203.095 54.0114,219.429 57,236.5C 62.015,252.848 72.8484,263.015 89.5,267C 103.96,269.294 118.293,268.627 132.5,265C 258.485,231.754 384.818,199.92 511.5,169.5 Z"/></g>
</svg>
